<?xml version="1.0" encoding="utf-8"?>
<!-- Uploaded to: SVG Repo, www.svgrepo.com, Generator: SVG Repo Mixer Tools -->
<svg fill="#000000" width="800px" height="800px" viewBox="0 0 32 32" version="1.1" xmlns="http://www.w3.org/2000/svg">
<title>battery-charging</title>
<path d="M27 9.25h-7c-0.414 0-0.75 0.336-0.75 0.75s0.336 0.75 0.75 0.75v0h6.25v10.5h-6.25c-0.414 0-0.75 0.336-0.75 0.75s0.336 0.75 0.75 0.75v0h7c0.414-0 0.75-0.336 0.75-0.75v0-12c-0-0.414-0.336-0.75-0.75-0.75v0zM10 21.25h-7.25v-10.5h9.25c0.414 0 0.75-0.336 0.75-0.75s-0.336-0.75-0.75-0.75v0h-10c-0.414 0-0.75 0.336-0.75 0.75v0 12c0 0.414 0.336 0.75 0.75 0.75h8c0.414 0 0.75-0.336 0.75-0.75s-0.336-0.75-0.75-0.75v0zM30 13.25c-0.414 0-0.75 0.336-0.75 0.75v0 4c0 0.414 0.336 0.75 0.75 0.75s0.75-0.336 0.75-0.75v0-4c-0-0.414-0.336-0.75-0.75-0.75v0zM20.609 14.562c-0.138-0.19-0.359-0.312-0.609-0.312-0.065 0-0.128 0.008-0.188 0.024l0.005-0.001-6.176 1.544 5.99-9.414c0.072-0.113 0.115-0.251 0.115-0.399 0-0.414-0.336-0.75-0.75-0.75-0.264 0-0.496 0.136-0.629 0.342l-0.002 0.003-7 11c-0.073 0.114-0.117 0.253-0.117 0.402 0 0.414 0.336 0.75 0.75 0.75 0.065 0 0.127-0.008 0.187-0.023l-0.005 0.001 6.176-1.544-5.99 9.414c-0.074 0.114-0.117 0.253-0.117 0.402 0 0.265 0.137 0.498 0.345 0.631l0.003 0.002c0.113 0.073 0.251 0.117 0.399 0.117 0.001 0 0.001 0 0.002 0h-0c0 0 0.001 0 0.001 0 0.265 0 0.498-0.137 0.631-0.345l0.002-0.003 7-11c0.073-0.114 0.117-0.254 0.117-0.403 0-0.164-0.053-0.316-0.142-0.44l0.002 0.002z"></path>
</svg>